<svg id="Layer_1" data-name="Layer 1" xmlns="http://www.w3.org/2000/svg" viewBox="0 0 4244.42 1962.86"><defs><style>.cls-1{fill:#030303;}.cls-2{fill:#050505;}.cls-3{fill:#020202;}.cls-4{fill:#040404;}.cls-5{fill:#171717;}.cls-6{fill:#131313;}.cls-7{fill:#101010;}.cls-8{fill:#080808;}.cls-9{fill:#0a0a0a;}.cls-10{fill:#0d0d0d;}.cls-11{fill:#090909;}.cls-12{fill:#1d1d1d;}.cls-13{fill:#fefefe;}</style></defs><path class="cls-1" d="M387.31,744.87c43-92.11,93-180.25,153.43-262.1,20.11-27.24,43.22-52.36,66.06-77.44,4.39-4.83,15.18-8.6,20.89-6.64,23.93,8.22,47.16,18.54,70.37,28.74,5.29,2.33,10.18,5.9,5.9,14.35-35.68,70.38-50.69,146.72-63.41,223.65A1169.71,1169.71,0,0,0,625.8,908c-26.58-1.45-51.13-6.94-72.62-21.32-4.47-3-6.69-12.06-6.81-18.39C545,796.32,549.46,724.67,563.28,654c10.77-55,24.15-109.59,36.32-164.37a26.32,26.32,0,0,0-.43-14.32c-9.79,8.45-20.32,16.2-29.25,25.49-39,40.58-67.34,88.52-93.19,138-39.26,75.11-71.26,153-86.5,236.92-1.86,10.19-2.82,20.55-4.43,32.53-27.63.41-52.86-6.61-74.81-23.21-3.67-2.77-4.45-10.9-4.57-16.59C304,754.3,320.5,642.61,350.12,532.61c3.92-14.55,6.72-29.41,10-44.14a9.42,9.42,0,0,0-.83-6.35c-58.18,57.42-98.75,127-135.42,199S155.64,827,144.79,907.82c-1.92.09-2.87.37-3.68.15C90.34,894.12,82.68,880,101,830.85c27.23-73.22,66.16-140.72,104-208.69,33.27-59.83,67.68-119.1,112.45-171.3,14.93-17.42,32.63-32.62,50.17-47.53,4.88-4.14,14.79-6.7,20.55-4.69,23.47,8.19,46.33,18.17,69.16,28.06,7.91,3.42,9.69,8.77,6,18.18-37.85,96-62.72,195.6-78.86,297.43-.46,2.87-.93,5.73-1.39,8.6l1.49.42C385.44,749.18,386.37,747,387.31,744.87Z" transform="translate(1407.87 732.37)"/><path class="cls-2" d="M269.48-175V-292.25c-.08-28.94-5.67-40.32,37.43-38,1.79.09,3.62-.37,6.9-.74v-15.4c0-86.45-.21-172.91.34-259.35A54.05,54.05,0,0,1,321.67-632c17.48-29.12,36.46-57.33,54.25-86.27,6.16-10,13.87-14.32,25.52-14.05,22.2.51,44.42.61,66.61,0,12.22-.36,20.12,3.78,26.45,14.58,16.95,28.89,35.38,56.91,52.19,85.88A55.86,55.86,0,0,1,554-605.44c.53,86,.32,172,.32,257.94v17.3H570c30.15,0,31.64,1.56,31.64,32.31v120.14c2.34.73,3.68,1.59,4.93,1.48,32.49-3,32.21,8.73,32.12,33.39-.34,103.93-.13,207.86-.15,311.79,0,21-4,25.12-24.55,25.13q-188.5,0-377,0c-19.9,0-24.38-4.39-24.39-23.89q-.06-160.86,0-321.72c0-18.63,4.82-23.36,23.37-23.46C246.36-175.09,256.74-175,269.48-175Zm-22.05,33.16V158.77H604.75V-141.88Zm275.73-185.8V-441.75c-10.83,0-21.1.41-31.33-.11-11-.55-18.09-6.61-17.5-17.92.54-10.45,7.41-15.8,18-15.8h30.46v-48.6c-15.54,0-30.14-.13-44.73,0-11.43.13-19.55-4.15-20.83-16.28-1.09-10.39,7.41-17.33,20.77-17.5,14.89-.19,29.79-.05,44.68-.05,2.7-30.15,4.35-58.18-16.79-81.62-3.73-4.13-6-9.57-9-14.33-9.64-15-16.15-35.76-29.89-43.27s-35-2.62-52.82-1.69c-5.27.28-12.07,4.33-15.1,8.76-15.45,22.54-30.2,45.59-44.45,68.92a39.63,39.63,0,0,0-5.67,19.5c-.37,86.83-.24,173.66-.24,260.49v13.52Zm45.45,31.25H304.12v120.82H568.05v-43.88h-19.5c-46.73,0-93.46.11-140.19-.07-15.25-.06-23.65-9.62-19.71-21.86,3.41-10.61,12.1-11.86,21.62-11.85q71.52.14,143,0h15.31Z" transform="translate(1407.87 732.37)"/><path class="cls-2" d="M861.49-208.09v-16.79q0-141,0-281.91c0-20.67,4.25-25,24.69-25q106.95,0,213.91,0c21.5,0,25.86,4.25,25.86,25.4q0,140.25,0,280.5v17.77h62c24.85,0,28.63,3.79,28.63,28.77q0,172.83,0,345.67c0,23-4,26.88-27.29,26.88q-196.2,0-392.41,0c-22.26,0-26.37-4.11-26.37-26.4q0-174.24,0-348.5c0-22.19,4.22-26.38,26.47-26.41C818.16-208.12,839.26-208.09,861.49-208.09ZM804.8,158.59h379.29v-332H804.8Zm89.43-656.15v290.81h198.34V-248h-14.68c-41.55,0-83.1-.16-124.65.1-11.82.08-20.91-2.89-22.21-16.13C930-275,938.47-281.7,953.24-281.75c41.56-.14,83.11,0,124.66-.08,4.52,0,9-.39,13.44-.6v-42.49h-14.7c-19.83,0-39.66,0-59.49,0-11.21,0-18.48-5.5-18.48-16.84s7.49-16.64,18.53-16.93c4.72-.12,9.44,0,14.16,0h59.78v-138.8Z" transform="translate(1407.87 732.37)"/><path class="cls-2" d="M1303.07,182.23V130.09h1533.4v52.14Z" transform="translate(1407.87 732.37)"/><path class="cls-2" d="M125.63,182.54h-1533.5V130.08H125.63Z" transform="translate(1407.87 732.37)"/><path class="cls-3" d="M-1407.85,73.89V21.49H125.83v52.4Z" transform="translate(1407.87 732.37)"/><path class="cls-3" d="M1303.08,73.79V21.59H2836.56v52.2Z" transform="translate(1407.87 732.37)"/><path class="cls-4" d="M-1256.59,473.08c-32.91,9.62-63,24.91-91.12,46-17.75-15.22-28.12-35-34.09-57-.87-3.21,4-10.59,7.75-12,35.47-13.7,70.56-29.27,107.17-38.95,51.26-13.56,104-19.23,157.11-10.37,35.41,5.91,66.79,20.32,89.69,49.24,29.8,37.64,32.31,93.76,4.73,139.89-38.36,64.17-98.4,93.68-170.36,102.75-6.08.77-12.24.86-18.37,1.24-20.06,1.25-38.78-1.48-53.84-20.12-36.22,77.31-65,155.42-83.11,238.19-32.06-6-50.27-27.59-65-52.91-1.56-2.68,1.66-8.57,3.38-12.67,44.92-106.85,90.17-213.56,134.66-320.58,6.64-16,9.82-33.39,14.59-50.13l.06-3.48Zm102.16-24.67c0,7.25,1.87,13.56-.28,17.85C-1182.08,521-1210,575.45-1237.77,630c-.77,1.51-.63,3.47-.92,5.29,42.35,2.07,97.61-7.23,134.8-23.09,28.14-12,53.85-27.61,70.74-54.21,28.68-45.16,6.5-100-46.08-108.88C-1103.85,445-1129.76,448.41-1154.43,448.41Z" transform="translate(1407.87 732.37)"/><path class="cls-4" d="M1089.89,699.17c24.28-34.89,48.3-70.39,82.41-96.4,18-13.75,39.34-23.42,59.75-33.8,9.83-5,18.65-1.13,26.17,7.44,18.15,20.67,20,44.55,13,69.19-13.8,48.32-43.33,82.89-93.36,100C1198,809.35,1227.69,866.29,1286,904c-18.58,39.12-75.13,45.38-99.91,10.71-21.87-30.6-30.31-66.75-39.56-102.31-5.82-22.34-10.3-45.07-14.22-67.83-.79-4.56,2.44-11.22,5.94-14.88,26.37-27.47,54.17-53.63,79.5-82,8.59-9.63,12.53-24.09,16.45-37,4.34-14.27-1.28-19.55-15-13.26a163.28,163.28,0,0,0-39,24.9c-34.83,30.38-61.09,68-85.5,106.85-30.14,48-44.66,100.38-43.62,157.68-11,.48-17.92-5-25.66-13-31.44-32.54-29.58-70.84-20.28-110,18.08-76.08,48.05-148,82.78-217.64,27.31-54.77,58.2-107.8,88.75-160.88,8.83-15.34,22-28.16,33.21-42.14,5.58-7,12-7.87,19.86-3.62,20.75,11.18,35.84,27.65,44.8,49.19,1.81,4.35.66,13-2.53,15.88-70.56,63.38-118.79,142.32-158.73,227-10,21.23-17.9,43.48-26.76,65.26q-1.07,2.8-2.12,5.61c0,1.38-.07,2.75-.1,4.13l2.11-2.35Z" transform="translate(1407.87 732.37)"/><path class="cls-4" d="M-337,777.53c-13.82,16.53-27.54,33.14-41.48,49.56-11.26,13.28-22.41,26.68-34.35,39.33-6.93,7.33-16.18,9.79-26,5.54-12-5.18-24.78-9.35-35.5-16.54-14.84-9.94-22.06-24.52-21.3-43.54,1.62-40.92,15.35-78.45,30.2-115.74,15.78-39.63,35.09-77.37,62.79-110.18,24.56-29.09,50.31-30.59,80.57-4.65-1.77,2.87-3.52,6-5.52,8.92-46.18,67.61-81.69,140-98.4,220.71-1.66,8-.22,16.73-.22,25.11l4.55,1.66c7.34-7,15.78-13.18,21.81-21.17,27.84-36.91,55.75-73.82,82.05-111.83,10-14.52,15.43-32.18,23.69-48,11.29-21.65,23.07-43,35.08-64.31,5.74-10.17,14.45-12.64,26.36-10.63,44.51,7.53,47.75,13.55,29.29,53.9C-222.82,678-243,720.21-259.57,763.7c-12.43,32.54-12.06,66.66,4,99.12,1,2,.92,4.52,1.34,6.8-46.33,8.54-85.88-35.81-81.18-90.44.14-1.13.29-2.26.44-3.38Z" transform="translate(1407.87 732.37)"/><path class="cls-2" d="M-882.24,762.51c-17.38,24-33.59,49-52.59,71.63-11,13.1-25.54,23.87-40.12,33.12-21,13.33-40.45,8.55-55.78-11.4-14.6-19-19.12-41.41-16.67-64.32,8.9-83.13,47.43-150.92,113.57-201,39.34-29.8,56.19-24.08,88.6,21,1.83,2.54,2.58,5.85,3.34,7.62-83.43,35.55-128.87,100.29-147.7,185.73-2.08,9.45,2.5,20.37,4,30.61,9.42-4.13,20.61-6.26,28-12.74,34.16-30.1,56.47-69.33,78.85-108.14,20.25-35.09,38.84-71.14,59.79-109.77,11.07,4.2,23.24,8.36,35,13.45,8.85,3.83,10.31,9.67,5.83,19.24-22.26,47.48-41.55,96.14-50.32,148.17a162.89,162.89,0,0,0-2,42.21c1.15,12,6.49,23.55,10.49,37a69.82,69.82,0,0,1-42.73,8.5c-15.1-1.79-25.73-13.32-26.45-32.05-.67-17.26,1.78-34.7,3.73-52,.94-8.35,3.87-16.47,5.89-24.69l1.2-6.18-1.89-.56C-880.87,759.52-881.56,761-882.24,762.51Z" transform="translate(1407.87 732.37)"/><path class="cls-4" d="M858.12,762.42c-17.35,24-33.45,49.11-52.51,71.69-11.3,13.4-26.32,24.4-41.37,33.73-20.49,12.69-39.58,7.58-54.5-12-15.55-20.36-18.49-44.06-16.42-68.57,4.28-50.87,24.52-96,54.71-136,16.58-22,35.56-43.51,57.46-59.89,40.4-30.23,58.91-25.57,91,22.59a20.81,20.81,0,0,1,2,5.11c-83.65,36.09-129.55,101-147.84,187.25-1.91,9,2.66,19.41,4.23,29.16,9-3.83,21-5.24,26.67-11.93,22.24-26.09,44.85-52.39,63-81.32,27.25-43.47,50.85-89.22,77.75-137.1,10.2,3.86,22.38,8,34.15,13.1,8.81,3.82,10.32,9.64,5.84,19.23-22.36,47.93-42,97-50.48,149.54a165.91,165.91,0,0,0-1.78,42.2c1.14,11.53,6.53,22.65,10.57,35.65a69.59,69.59,0,0,1-42.86,8.54c-15.86-1.92-27.48-14.84-26.54-34.85,1.15-24.71,6.39-49.23,9.87-73.83-.13-2.17-.27-4.34-.4-6.51Z" transform="translate(1407.87 732.37)"/><path class="cls-1" d="M86.56,373.21c-124.95,159-191.84,336.64-214.32,535-6.13-4.61-13.42-9.49-20-15.16-42-36-31.8-82.51-21-125.93C-136,635.42-87.32,509.48-21.66,390.42c8.84-16,20-30.87,30.83-45.66,2.32-3.15,9.45-6.36,12.2-5C43.23,350.19,64.56,361.74,86.56,373.21Z" transform="translate(1407.87 732.37)"/><path class="cls-4" d="M1813.48,668.12c-2,95.81-64.78,181.14-154.56,210.15-27.32,8.83-49.18,1.45-68.79-16.47-21.07-19.26-30.75-44.72-30.24-72.42,1.76-95.16,45.82-167.47,126.76-214.93,37.47-22,45-16,69.52,16.62,7.22,9.6,12.49,18,27.14,16.91,12-.91,19.74,9.07,22.72,20.07C1809.57,641.12,1811.09,654.74,1813.48,668.12Zm-55.34-52.24c-19,11.52-35.82,19.39-49.91,30.65-45.15,36.07-71.22,84.57-85.57,139.69-5.2,19.95-5.07,40.13,3.45,59.63,3.94,9,8.63,12.76,19.59,9.23,31.77-10.23,57-29.14,76.54-55.49,34.1-45.91,46.38-98.23,42.72-154.64C1764.43,636.82,1761.27,628.85,1758.14,615.88Z" transform="translate(1407.87 732.37)"/><path class="cls-4" d="M2703.43,753.63c-6.14-28.4-11.47-55.08-17.73-81.54C2674.21,623.6,2691,579,2731.94,551c.39-.27.81-.48,1.2-.74,27.3-18.18,33.24-18,58,3.71,9.89,8.7,18.55,18.79,28.15,27.85,18.45,17.43,21.67,37.74,11.63,60.38-4.94,11.13-10.18,22.27-16.75,32.47-2.4,3.72-9,4.73-13.72,7-1.06-5.34-3.51-10.85-2.85-16,.88-6.87,6.09-13.48,5.93-20.11-.2-8.25-1.58-20-6.92-23.6s-18.75-2.3-24.17,2.21a77.82,77.82,0,0,0-22,29.95c-12,30.25-12.52,62.4-11.85,95.17h44.08c1.63,7.08,1.73,12-7.27,14.44-11.68,3.12-27.27,4.3-33.3,12.28s-2.59,23.3-3,35.41c-2.07,64-38.1,104.83-101.31,114.61-32.94,5.1-71-33.23-65.42-65.9C2581.63,805.69,2629.89,763,2691,755,2693.78,754.69,2696.54,754.41,2703.43,753.63Zm.42,34.51c-32.73,5-81.24,50.52-86.46,80.53-1.11,6.43.67,14,3.16,20.26,3,7.47,8.71,10.15,16.95,5C2676.48,869.82,2698.47,835.29,2703.85,788.14Z" transform="translate(1407.87 732.37)"/><path class="cls-4" d="M2321.75,780.78l11.31,9.85c-32.23,41.31-67.85,75.53-117.13,92.24a43.68,43.68,0,0,1-22,1c-58.58-12.3-88.52-58.06-78-120.87,11.42-68.48,44.69-125,99.4-167.62,16-12.43,35.59-21.4,54.9-28,26.74-9.1,58.93,5.25,73.33,29.6,1.91,3.21,1.84,8,1.62,12-3.34,61.47-32.38,107.69-85.09,138.39-23.54,13.72-48.71,24.69-73.44,36.28-6.35,3-10,5.95-9.22,13.36,1,9.35.56,18.93,2.33,28.1,5,25.71,16.86,33.4,42.49,27.33,29-6.86,51.46-25,72.69-44.72C2303.84,799.46,2312.16,790.46,2321.75,780.78Zm-139.2-19.3c62-20.45,122.51-93.1,118.33-141.29C2232.6,642.65,2205.11,698.12,2182.55,761.48Z" transform="translate(1407.87 732.37)"/><path class="cls-2" d="M1510.19,780.14l11.24,10.67c-32.08,41-67.52,75.74-117,91.7-10.17,3.28-23.36,1-34.13-2.12-43.17-12.7-70-48.83-67.46-93.32,5.09-87.46,46.4-154.88,118.14-204.05,8-5.52,17.45-9.44,26.7-12.79,33.43-12.1,61.07-3.86,82.51,24.67,2.71,3.61,3.86,9.44,3.59,14.12-3.62,61.32-32.52,107.67-85.26,138.4-23.14,13.48-47.74,24.56-72.15,35.7-7.62,3.48-11.3,7.23-10.43,15.5,1,9.82.63,19.94,2.85,29.47,5.31,22.8,16.29,29.69,39.32,25,29.34-6,52-23.91,73.3-43.55C1491.07,800.58,1499.9,790.69,1510.19,780.14ZM1490.1,621.73c-50.92,9.41-108.06,78.15-116.68,139.35C1434,739.08,1490.22,672.45,1490.1,621.73Z" transform="translate(1407.87 732.37)"/><path class="cls-4" d="M1928.31,836.46c79.66-79.5,132.61-171.31,162.47-276a10.71,10.71,0,0,1,2.56-.45c44.91,11.09,41.95,12.6,29.76,47.92a411.19,411.19,0,0,1-47.51,95.64c-46.84,69.09-101.83,131.19-172.32,177.9-10.91,7.22-20,12.1-32.46,2.24-15-11.88-21.75-24.35-18.22-39.71a21.19,21.19,0,0,1,.86-2.7c22.53-59.8,22.27-122,19.64-184.48a280.78,280.78,0,0,1,.84-38.15c2-20.72,14.19-33,34.81-34,12.07-.58,24.41,1.18,36.34,3.41,3,.56,7.32,7.07,7.09,10.59-2.75,42.79-5.42,85.62-9.81,128.27-3.46,33.67-9.29,67.09-14,100.63C1928.09,829.31,1928.31,831.17,1928.31,836.46Z" transform="translate(1407.87 732.37)"/><path class="cls-4" d="M2528.9,587c-27.86,33.66-42.82,69.92-53.18,109.13,3-2.43,6.38-4.51,8.94-7.33,30.65-33.86,61.38-67.64,91.61-101.87,8.78-9.93,34.94-11.51,43-1,1.5,2,1.41,6.06.61,8.74-9.17,30.82-13.78,61.63-2.58,93.08,1,2.8-.46,7.45-2.35,10.14-6.46,9.18-13.62,17.88-20.29,26.47-21.79-9.3-33.7-22.23-51.65-55.28-81.91,47.13-114.74,124.52-130.2,213.93-20.74-4.77-36.73-14.62-49.38-29.54-2.4-2.82-2.37-9-1.4-13.19,20.38-88.37,47.3-174.7,85.67-257,14.52-31.13,14.38-28,45.18-16.19C2504.88,571.72,2515.68,579.56,2528.9,587Z" transform="translate(1407.87 732.37)"/><path class="cls-4" d="M-710.59,884.08c-12.6-8.34-27.27-17.24-40.82-27.6-3.37-2.57-5.28-10.34-4.25-14.9,19.94-88,46.92-173.93,84.69-256,15.49-33.64,15.07-31,49.13-17.39,11.11,4.42,21,11.93,31.19,17.88-10.92,18.37-21.63,34.35-30.22,51.4s-15,35-22.36,52.63l3.31,2.71c2.69-1.66,5.95-2.82,8-5.07,29.8-32.73,59.78-65.32,88.95-98.62,10-11.4,33.14-15,43.53-4.14,2.07,2.17,2.22,7.6,1.28,11-8.5,30.44-13.41,60.79-1.89,91.7,1,2.76-.54,7.46-2.45,10.16-6.49,9.17-13.67,17.84-21.09,27.34-24.63-12.88-40.1-32.19-50.79-57.59-36.72,25-71.31,52-89.85,92.34C-682,798.65-694.35,839.86-710.59,884.08Zm68.43-191.16-1,1a8.83,8.83,0,0,0,1.9.89c.24.05.62-.57.94-.89Z" transform="translate(1407.87 732.37)"/><path class="cls-5" d="M-428,1159.94H-485c0,13.4,0,26,0,38.55,0,13.65,8.45,17.89,20.27,17.93s20.45-3.89,20.54-17.62c0-3.28,0-6.56,0-11.22l15.22-1.34c1.75,13.7,2.51,26.58-8.64,35.58-13.76,11.13-30.08,9.88-45.76,4.75-12.88-4.22-17.53-15.12-17.62-27.87-.19-29.23-.55-58.48.12-87.7.49-21.29,12.93-30.84,37.33-30.49,23.15.34,34.73,10.28,35.38,31.22C-427.66,1127.18-428,1142.65-428,1159.94Zm-16.1-14.47c0-12.27,0-23,0-33.83.06-13.78-8.63-17.53-20.3-17.55s-20.48,3.58-20.55,17.35c-.05,11.13,0,22.27,0,34Z" transform="translate(1407.87 732.37)"/><path class="cls-6" d="M1860.74,1227.59c-2.74-4.19-5.49-8.38-7.93-12.12-5.68,4.07-10.86,9.33-17.13,12-21.78,9.19-42.51-3.26-43.21-26.6-1.06-35.66-5.55-57.95,49.12-54.77,2.24.13,4.51-.31,7.76-.57,0-11.36-.16-22.09,0-32.82.26-13.39-7.16-18.45-19.45-18.66-12.44-.21-19.75,5-19.78,18.26,0,3.25-.29,6.49-.48,10.46h-14.54c-1.19-14.16-2-28.22,11.85-36.67a42,42,0,0,1,43.23-.93c6.71,3.71,13.84,13.56,14.09,20.86,1.36,39.88.65,79.83.65,119.75Zm-11.38-67.77c-10,0-18,0-26,0-10.83,0-16.15,6.52-14.87,16.25,1.8,13.7-8.44,31,10.72,40,1.2.56,2.79.34,4.2.38,12.55.31,25.15-10.58,25.81-23.12C1849.81,1182.66,1849.36,1171.89,1849.36,1159.82Z" transform="translate(1407.87 732.37)"/><path class="cls-7" d="M-318.44,1160.07h-57.18c0,13.34-.29,25.91.08,38.46.38,13,8.44,18,20.55,18,14.08,0,20-5.26,20.93-18.91.22-3.2.39-6.39.62-10.26h14.37c1.4,12.61,2.55,25.68-8.86,34.51-14.32,11.08-31,10.08-47.06,4-12.71-4.84-16.13-16-16.07-28.77.12-28.29-.2-56.57.12-84.85.24-21.29,11.48-31.24,34.63-31.65,24.43-.43,36.76,9,37.73,30.09C-317.86,1126.57-318.44,1142.51-318.44,1160.07ZM-334,1145.8c0-10.75.11-20.56,0-30.36-.22-15.5-5.43-21.08-19.7-21.49-15.26-.43-21.56,5.38-22,20.81-.27,10.22-.05,20.45-.05,31Z" transform="translate(1407.87 732.37)"/><path class="cls-7" d="M97.53,1083.42c0,37.61,0,73.47,0,109.34,0,11.11-.46,22.77,15.29,23.71,13.85.82,27-10.73,27.09-24.83.33-35.36.11-70.72.11-107.16l14.77-1v142.62l-3.17,1.41c-2.8-4.15-5.6-8.29-6.21-9.21-12.33,3.91-23.78,10.25-35.43,10.63-18.65.61-27.48-9.54-27.7-28.41-.44-38.24-.13-76.48-.13-116Z" transform="translate(1407.87 732.37)"/><path class="cls-8" d="M1686.69,1226V1084.1c14.33,0,28.34-.89,42.19.22,17.17,1.39,26.72,11.39,27.12,28.59.66,28.24.7,56.52,0,84.76-.45,17.53-9.79,26.9-27.28,28.14C1715.14,1226.77,1701.48,1226,1686.69,1226Zm15.08-12.46c5.47,0,9.64,0,13.81,0,19.81-.2,25.27-5.55,25.33-25,.06-23.08.13-46.17,0-69.24-.12-15.79-5.63-21.43-20.92-21.88-5.93-.18-11.86,0-18.19,0Z" transform="translate(1407.87 732.37)"/><path class="cls-9" d="M43.46,1155.82c0,15.09.46,30.19-.12,45.25-.62,16.08-9,25.32-25,27.38a92.76,92.76,0,0,1-25.24-.24c-14.89-2.24-23.55-11.83-23.82-27.08q-.82-45.95,0-91.91c.26-15.3,8.58-24.69,23.7-27.22a82.86,82.86,0,0,1,25.25-.27c16.55,2.4,24.68,12,25.21,28.84.47,15.07.09,30.17.09,45.25Zm-15.08.11c0-14.58.32-29.17-.09-43.73-.37-12.92-6.95-18.21-21.46-18.37s-21.92,4.85-22.18,17.6q-.87,43.71,0,87.45c.25,12.75,7.64,17.89,22.13,17.76,14.27-.12,21.13-5.64,21.51-18.39C28.7,1184.15,28.38,1170,28.38,1155.93Z" transform="translate(1407.87 732.37)"/><path class="cls-8" d="M1216,1226.07h-13.93V1084l3-1.25c2.48,3.92,5,7.84,6.3,9.93,10.79-4,21.48-10.54,32.64-11.48,19.16-1.62,29.51,8.4,29.86,27.52.73,38.58.22,77.2.22,117l-15.17.91V1127.2c0-3.3,0-6.6,0-9.9.1-11.25.39-22.63-15.43-23.32-14.15-.62-27,10.62-27.08,24.76-.31,33.47-.1,67-.12,100.43C1216.34,1221,1216.17,1222.88,1216,1226.07Z" transform="translate(1407.87 732.37)"/><path class="cls-9" d="M1085.7,1156c0-15.09-.38-30.19.09-45.27.64-20.22,12.64-29.9,36.31-30.11,24.71-.23,37.55,9.35,37.94,29.89.58,29.7.47,59.42,0,89.12-.27,17.63-8.86,26.9-26.46,29a89.08,89.08,0,0,1-23.86-.38c-14.93-2.31-23.29-11.86-23.83-27s-.12-30.18-.12-45.26Zm59.3-.3c0-14.1.29-28.22-.08-42.32s-6.76-19.47-21.82-19.53-21.89,5.32-22.08,19.24c-.37,27.74-.33,55.49,0,83.23.15,14.75,7,20.56,22.52,20.35,14.66-.2,21.08-6,21.43-20.06C1145.27,1183,1145,1169.32,1145,1155.68Z" transform="translate(1407.87 732.37)"/><path class="cls-10" d="M647.65,1129.33H632.22c0-4.56-.14-8.66,0-12.74.44-10.13-.82-20.64-13-21.27-8.47-.44-20.33,1.34-25.06,6.9-6.9,8.13-4,19.82,4.34,28.08,12.11,11.93,25,23.16,36.45,35.65,5.87,6.37,11.58,14.28,13.63,22.43,3.13,12.46,3.05,26.32-9.54,34.57-14.94,9.78-31.64,8.88-47.64,2.9-13.6-5.08-16.24-17.18-15.87-30.29.13-4.63,0-9.27,0-14.58h15.44c0,4.77.17,9,0,13.16-.52,10.45,2.13,20.53,13.64,21.13,8.91.47,20.94-1.49,26.46-7.27,7.72-8.07,3.7-19.84-4.18-28-12.12-12.57-25.08-24.34-37.16-37-4.78-5-9.66-10.85-11.82-17.22-4.4-13-4.92-26.85,6.59-36.66,14-11.94,30.88-10.68,47-5.18,13.12,4.46,16.11,16.11,16.09,28.72Z" transform="translate(1407.87 732.37)"/><path class="cls-7" d="M1409,1084.3c10.63,47.06,21.21,93.86,32,141.75-28,3.22-13.36-23.56-26-31.87h-38.54c-2.51,10.47-5,20.87-7.63,31.8h-15.28c7.7-34.39,15.19-67.85,22.69-101.31,1.55-6.9,3.18-13.77,4.7-20.68C1385.6,1083.07,1385.59,1083.06,1409,1084.3Zm-10.78,22.53-2.48.26c-5.36,24-10.71,47.92-16.21,72.51H1415Z" transform="translate(1407.87 732.37)"/><path class="cls-6" d="M1008.82,1085c-11.18,17.71-21.36,34.66-32.43,51-4.63,6.85-4.48,12.24-.72,19.29,12.15,22.8,23.68,45.93,35.71,69.44-11.44,4.68-17.49,1.25-22.3-9.41-8.05-17.84-17.64-35-28-55.11-12.34,22.43-3.24,44.07-7.77,65.29H939.1v-141h15.3v53.08l3.06,1.07c9.13-14.39,18.78-28.49,27.19-43.29C990,1086,996,1080.71,1008.82,1085Z" transform="translate(1407.87 732.37)"/><path class="cls-6" d="M-524.47,1225c-12.11,4.64-17.93,0-22.62-10.24-8.17-17.8-17.64-35-27.74-54.76-12.51,22.11-3.13,43.89-8,66l-14,.62V1084.47l14.71-1.07v55.43l2.92,1.05,28.17-44.38c7.69-12.13,7.69-12.13,24.18-11.1-10.82,17.28-20.71,34.12-31.72,50.2-5.19,7.59-5.76,13.37-1.22,21.65C-547.47,1178.79-536.23,1202-524.47,1225Z" transform="translate(1407.87 732.37)"/><path class="cls-9" d="M885.44,1187.33h13.94c1.3,14.53,1.87,28.12-11.8,37.12-11.64,7.66-38.91,7.85-48.43-1.59-5.75-5.7-10.55-15.07-10.89-23-1.27-29.68-.89-59.45-.4-89.18.33-20.19,12-29.77,34.77-30.07,23.92-.31,35.86,8.92,37.13,29.12.45,7,.07,14,.07,21.76H884.68c0-5.56.07-10.67,0-15.77-.24-16-5.81-21.82-20.88-21.78s-20.64,5.81-20.76,22c-.2,25.48-.14,51,0,76.46.07,17.83,5.22,23.85,20.18,24.15,15.75.32,20.81-5.37,21.53-24.1C884.77,1191.09,885.09,1189.72,885.44,1187.33Z" transform="translate(1407.87 732.37)"/><path class="cls-6" d="M492.51,1182.68v42.73H477.2v-142.3c15.58.83,31.41.54,46.84,2.86,13.09,2,20,11.88,20.57,25.12s.49,26.37.24,39.55c-.4,20.69-10.37,30.82-31.3,32C507.07,1183,500.54,1182.68,492.51,1182.68Zm.59-85.13V1169c7.17,0,13.67.2,20.14,0,10.13-.37,15.79-6.17,16.21-15.93.56-13.13.63-26.33,0-39.45-.49-9.65-6.18-15.56-16.3-15.94C506.65,1097.36,500.17,1097.55,493.1,1097.55Z" transform="translate(1407.87 732.37)"/><path class="cls-9" d="M1944.59,1186.54v39h-16v-38c-26.34-9.15-29.47-13.66-29.48-41.45,0-20.24,0-40.48,0-61.54h15.24c0,21.76-.09,43.4,0,65,.09,17.39,6.39,24,22.25,23.9s21.82-6.75,21.89-24.3c.1-21.22,0-42.45,0-64.79l14.7-.77c0,26.69.84,52.58-.31,78.37C1972.21,1177.81,1959.6,1183.56,1944.59,1186.54Z" transform="translate(1407.87 732.37)"/><path class="cls-9" d="M-279.38,1083.91c13,0,24.84-.5,36.6.11,20.19,1,30.14,11.43,30.62,31.33.27,11.33.21,22.67,0,34-.34,22.35-10.37,32.42-33.1,33.28-6,.23-12.09,0-19.08,0v43l-15.08,1.14Zm15.11,13.47v71.81c4.81,0,9,0,13.16,0,19.46-.1,23.85-4.51,24-24.3.07-9.91.32-19.84-.12-29.73-.48-11-6.11-17.58-17.72-17.77C-251.06,1097.3-257.14,1097.38-264.27,1097.38Z" transform="translate(1407.87 732.37)"/><path class="cls-9" d="M686.22,1084.19h47.35v13.3H701.49c0,35.58-.49,69.9.54,104.18.15,5.06,6.88,13.37,11.55,14.13,9.41,1.54,11.89-6.91,12-15.18.06-7.53,0-15.06,0-23.83l15.08-.85c0,10.14.47,19.46-.11,28.71-1,16-10.86,25-26.54,25.17-16.12.14-27.36-9.41-27.59-25.71C685.84,1164.58,686.22,1125.05,686.22,1084.19Z" transform="translate(1407.87 732.37)"/><path class="cls-6" d="M-142.07,1085c10.95-4,16.62-.66,20.19,10.16,6.46,19.56,14.25,38.68,22.8,61.5,8.48-22.42,16.37-41.73,23-61.46,3.59-10.69,9.09-14.42,20.06-10.13C-70,1131-101.15,1172.52-89,1225.47h-19.18C-96.77,1173.19-127.52,1131.26-142.07,1085Z" transform="translate(1407.87 732.37)"/><path class="cls-5" d="M260.12,1123.63l-13.82-.7c0-5.41,1-10.41-.28-14.69-1.51-4.86-4.57-12.22-8-12.82-4.82-.84-13.14,2-15.33,5.92a55.71,55.71,0,0,0-7,25.12c-.76,32.88-.31,65.79-.31,99.44h-15V1084.17l3.11-1.37,8.82,13.14c12.78-15.38,21.67-18.8,34.52-13.38C259,1087.64,262.63,1098.44,260.12,1123.63Z" transform="translate(1407.87 732.37)"/><path class="cls-5" d="M338.16,1084H353.5v129.38h39.82v12.49H338.16Z" transform="translate(1407.87 732.37)"/><path class="cls-5" d="M1472,1226V1084.26l15.36-.74v129.89h39.7V1226Z" transform="translate(1407.87 732.37)"/><path class="cls-11" d="M1611.49,1218.63c-3.6,2.64-7.07,7.34-10.81,7.56-15,.87-30.08.36-46.07.36v-142.1h14.54v128.77h38.74Z" transform="translate(1407.87 732.37)"/><path class="cls-12" d="M772.11,1084.26h14.66v141.31H772.11Z" transform="translate(1407.87 732.37)"/><path class="cls-2" d="M434.18,1225.9h-13.8V1084.29h13.8Z" transform="translate(1407.87 732.37)"/><path class="cls-9" d="M2026.29,1203.15v22.58h-18.73v-22.58Z" transform="translate(1407.87 732.37)"/><path class="cls-13" d="M387.31,744.87c-.94,2.15-1.87,4.31-2.8,6.46l-1.49-.42c.46-2.87.93-5.73,1.39-8.6C385.37,743.17,386.34,744,387.31,744.87Z" transform="translate(1407.87 732.37)"/><path class="cls-13" d="M-1256.59,473.08l3.25-.92-.06,3.48Z" transform="translate(1407.87 732.37)"/><path class="cls-13" d="M1084.34,702.46q1-2.81,2.12-5.61l3.43,2.32-3.54,5.07A17,17,0,0,0,1084.34,702.46Z" transform="translate(1407.87 732.37)"/><path class="cls-13" d="M1086.35,704.24l-2.11,2.35c0-1.38.07-2.75.1-4.13A17,17,0,0,1,1086.35,704.24Z" transform="translate(1407.87 732.37)"/><path class="cls-13" d="M-337,777.53l2.09-1.73c-.15,1.12-.3,2.25-.44,3.38A9.2,9.2,0,0,1-337,777.53Z" transform="translate(1407.87 732.37)"/><path class="cls-13" d="M-882.24,762.51c.68-1.49,1.37-3,2-4.49l1.89.56-1.2,6.18Z" transform="translate(1407.87 732.37)"/><path class="cls-13" d="M858.12,762.42l2.54-4.17c.13,2.17.27,4.34.4,6.51Z" transform="translate(1407.87 732.37)"/><path class="cls-13" d="M-642.16,692.92l1.83,1c-.32.32-.7.94-.94.89a8.83,8.83,0,0,1-1.9-.89Z" transform="translate(1407.87 732.37)"/><path class="cls-1" d="M529.09,85.57V69.4q0-70.14,0-140.29c0-17,5.13-24.7,16.28-24.84s17.21,8.19,17.22,24.25q.09,83.61,0,167.22c0,18.45-5.23,23.61-23.44,23.71-18.43.1-36.85,0-55.27,0-11.48,0-19.88-4.72-19.9-17s8.13-17,19.83-16.89C498.37,85.7,512.94,85.57,529.09,85.57Z" transform="translate(1407.87 732.37)"/><path class="cls-8" d="M327.66,85.57c9.89,0,19.79-.16,29.68,0,10.26.22,15.82,6.49,16.38,15.94.57,9.72-5.29,17-14.86,17.44-21.15.93-42.39.94-63.54,0-9.47-.41-15.36-7.19-14.94-17.28s6.31-15.6,16.2-16c10.34-.45,20.72-.1,31.08-.1Z" transform="translate(1407.87 732.37)"/><path class="cls-11" d="M860.84-126.1H1127.4V111H860.84Zm232,32.1H892.94V77h199.89Z" transform="translate(1407.87 732.37)"/></svg>